<svg xmlns="http://www.w3.org/2000/svg" width="324" height="294" viewBox="0 0 324 294">
<g>
<path d="M 204.95 118.00 C204.96,136.57 204.56,152.14 204.05,152.95 C203.49,153.84 203.01,140.91 202.79,118.95 C202.44,84.16 202.39,83.39 200.02,77.59 C197.24,70.79 189.60,62.37 183.30,59.15 C178.08,56.49 167.19,54.22 163.96,55.11 C162.61,55.49 159.77,55.85 157.66,55.90 C155.46,55.96 152.73,56.86 151.27,58.00 C149.87,59.10 148.21,60.00 147.57,60.00 C145.47,60.00 135.55,70.40 133.50,74.74 C132.40,77.07 131.16,78.98 130.75,78.99 C129.76,79.00 129.81,78.25 131.10,73.50 C132.38,68.80 141.20,59.49 145.35,58.45 C146.84,58.07 148.51,56.92 149.06,55.88 C149.81,54.49 151.18,54.00 154.38,54.00 C156.75,54.00 160.16,53.27 161.95,52.37 C164.99,50.86 165.64,50.87 171.36,52.55 C174.74,53.54 178.72,54.94 180.20,55.67 C181.69,56.40 183.77,57.00 184.82,57.00 C186.69,57.00 195.00,63.78 195.00,65.31 C195.00,65.72 196.57,67.64 198.50,69.57 C201.26,72.33 202.00,73.86 202.00,76.84 C202.00,78.92 202.66,81.49 203.47,82.56 C204.69,84.17 204.94,90.11 204.95,118.00 ZM 172.13 170.58 C167.04,172.72 163.00,172.28 157.78,169.00 C149.13,163.56 149.12,163.55 148.95,122.89 C148.86,101.18 149.19,86.53 149.80,85.00 C150.91,82.24 156.29,76.86 159.68,75.12 C162.42,73.72 169.01,73.67 172.57,75.03 C176.92,76.68 181.43,81.02 182.32,84.38 C183.95,90.60 184.21,93.00 183.24,93.00 C182.69,93.00 182.00,91.73 181.69,90.18 C180.22,82.86 166.14,71.73 163.58,75.87 C163.28,76.35 161.67,77.02 160.00,77.35 C158.32,77.69 156.67,78.76 156.33,79.73 C155.99,80.70 154.54,82.77 153.10,84.32 L 150.50 87.13 L 150.50 120.41 C150.50,144.54 150.83,154.36 151.71,156.10 C152.38,157.42 153.06,159.84 153.21,161.47 C153.42,163.64 154.31,164.82 156.50,165.86 C158.15,166.64 160.77,167.89 162.33,168.64 C166.08,170.44 166.67,170.38 172.39,167.62 C176.27,165.74 177.57,164.45 178.70,161.37 C181.01,155.13 181.95,150.79 181.98,146.25 C181.99,143.91 182.45,142.00 183.00,142.00 C184.78,142.00 184.23,158.22 182.35,161.03 C179.25,165.66 175.50,169.16 172.13,170.58 ZM 171.00 192.00 C171.00,192.55 169.23,193.00 167.06,193.00 C164.89,193.00 162.84,192.55 162.50,192.00 C162.16,191.45 160.14,191.00 158.00,191.00 C155.86,191.00 153.84,190.55 153.50,190.00 C153.16,189.45 151.48,189.00 149.77,189.00 C146.74,189.00 144.79,187.64 138.56,181.18 C137.14,179.71 134.86,177.36 133.49,175.96 C132.12,174.57 131.00,172.29 131.00,170.91 C131.00,169.53 130.44,167.83 129.75,167.14 C129.05,166.44 128.41,162.95 128.30,159.19 C128.19,155.51 127.97,150.29 127.80,147.59 C127.62,144.66 127.94,142.53 128.60,142.31 C129.32,142.06 129.89,145.43 130.28,152.28 C130.92,163.58 132.55,168.96 137.42,175.87 C140.98,180.93 150.34,188.00 153.46,188.00 C154.64,188.00 156.12,188.52 156.75,189.15 C157.43,189.83 161.30,190.30 166.28,190.30 C173.21,190.30 175.66,189.84 180.40,187.68 C187.90,184.24 200.22,172.00 200.65,167.55 C201.21,161.86 202.73,154.49 202.87,156.82 C202.94,158.09 203.47,160.00 204.04,161.07 C204.71,162.33 204.73,163.00 204.07,163.00 C203.52,163.00 202.77,165.23 202.41,167.97 C201.93,171.59 201.13,173.34 199.45,174.44 C198.19,175.27 196.85,176.88 196.49,178.03 C196.13,179.18 194.82,180.50 193.58,180.97 C192.35,181.44 190.62,183.29 189.75,185.09 C188.48,187.72 187.22,188.61 183.33,189.64 C180.68,190.34 176.81,190.93 174.75,190.96 C172.69,190.98 171.00,191.45 171.00,192.00 ZM 200.95 220.42 C192.45,223.38 192.91,222.58 203.40,216.18 C214.98,209.10 224.77,198.40 230.57,186.50 C236.90,173.51 237.95,168.34 238.21,148.88 C238.46,130.18 238.04,128.79 231.62,127.59 C225.35,126.41 220.00,129.79 220.00,134.93 C220.00,137.33 218.48,137.69 217.64,135.49 C216.79,133.30 222.01,125.24 225.10,123.96 C228.49,122.56 234.93,124.16 237.54,127.05 C239.27,128.96 239.61,130.94 240.19,142.50 C240.28,144.15 240.28,148.65 240.21,152.50 C240.14,156.35 240.10,160.88 240.12,162.57 C240.18,166.27 236.34,179.26 233.95,183.47 C233.01,185.14 231.48,188.55 230.56,191.05 C228.18,197.49 207.30,218.21 200.95,220.42 ZM 154.29 228.25 C155.38,230.58 155.58,232.63 155.02,235.50 L 154.23 239.50 L 154.12 234.77 C154.00,230.13 153.90,229.98 149.03,227.52 C146.30,226.13 143.00,225.00 141.69,225.00 C140.38,225.00 138.53,224.14 137.58,223.09 C136.63,222.04 134.77,220.91 133.45,220.58 C131.19,220.01 126.76,217.34 122.56,213.99 C120.12,212.06 107.95,199.88 106.00,197.44 C103.24,193.97 99.04,187.51 99.02,186.71 C99.01,186.27 98.10,184.95 97.00,183.77 C95.90,182.59 95.00,180.33 95.00,178.75 C95.00,177.16 94.56,175.05 94.02,174.04 C92.43,171.07 91.54,161.00 92.86,161.00 C93.49,161.00 94.00,161.86 94.00,162.91 C94.00,166.08 99.60,182.11 102.86,188.27 C110.82,203.32 122.57,213.86 139.20,220.90 C144.53,223.15 149.77,225.00 150.84,225.00 C152.04,225.00 153.34,226.22 154.29,228.25 ZM 173.50 207.00 C172.52,208.58 161.53,207.68 159.30,205.83 C158.64,205.29 156.39,204.96 154.30,205.10 C150.47,205.36 143.00,203.42 143.00,202.17 C143.00,201.22 150.24,201.33 151.74,202.30 C152.42,202.75 154.82,203.25 157.05,203.42 C159.29,203.59 161.64,204.24 162.26,204.86 C163.89,206.49 168.18,206.26 170.84,204.40 C172.44,203.28 174.17,203.00 176.60,203.45 C179.23,203.95 181.49,203.47 185.75,201.52 C194.16,197.66 202.00,192.16 202.00,190.12 C202.00,189.14 203.05,187.78 204.33,187.09 C205.61,186.40 207.49,184.42 208.50,182.67 C209.52,180.93 210.94,179.14 211.67,178.70 C212.40,178.26 213.00,176.32 213.00,174.38 C213.00,172.44 213.68,170.18 214.50,169.36 C215.32,168.53 216.00,166.14 216.00,164.05 C216.00,160.56 218.25,156.92 219.59,158.25 C220.31,158.97 218.55,167.44 216.58,172.76 C214.91,177.28 209.47,185.63 205.12,190.35 C197.52,198.63 184.19,206.00 176.84,206.00 C175.34,206.00 173.84,206.45 173.50,207.00 ZM 139.50 198.40 C141.15,199.73 142.26,201.07 141.97,201.37 C140.91,202.42 128.21,191.95 124.26,186.78 C120.67,182.07 116.73,175.46 117.10,174.76 C117.17,174.62 116.51,172.77 115.63,170.65 C114.73,168.51 114.28,165.71 114.62,164.38 C114.95,163.06 114.76,161.41 114.19,160.73 C112.30,158.45 112.22,149.40 114.10,150.56 C114.71,150.94 114.97,152.43 114.68,153.87 C114.38,155.36 114.77,157.34 115.58,158.44 C116.36,159.51 117.00,162.07 117.00,164.13 C117.00,166.19 117.49,168.18 118.08,168.55 C118.68,168.92 118.90,170.24 118.59,171.50 C117.85,174.45 122.44,182.79 125.61,184.23 C126.90,184.82 128.20,186.07 128.50,187.01 C128.80,187.94 130.27,189.88 131.77,191.31 C133.27,192.74 134.95,194.38 135.50,194.94 C136.05,195.50 137.85,197.06 139.50,198.40 ZM 167.55 256.08 C167.03,256.58 166.13,256.95 165.55,256.89 C163.33,256.67 156.98,252.37 154.94,249.72 C152.90,247.06 152.88,246.79 154.44,243.22 C155.73,240.29 155.95,240.09 155.51,242.29 C154.70,246.27 157.45,251.37 161.41,253.26 C164.06,254.52 165.58,254.64 168.77,253.83 C174.25,252.44 176.16,248.15 176.21,237.10 C176.24,229.07 176.31,228.87 179.47,226.46 C181.24,225.11 183.38,224.00 184.22,224.00 C185.06,224.00 187.61,223.34 189.87,222.54 C192.14,221.74 194.00,221.36 194.00,221.68 C194.00,223.09 190.26,224.94 187.37,224.97 C185.65,224.99 183.68,225.68 183.00,226.50 C182.32,227.32 181.19,228.00 180.50,228.00 C178.15,228.00 176.50,230.97 177.75,232.97 C179.27,235.40 178.22,245.80 176.13,249.00 C175.23,250.38 174.50,252.18 174.50,253.00 C174.50,253.93 173.35,254.62 171.50,254.83 C169.85,255.01 168.07,255.57 167.55,256.08 ZM 115.00 138.91 C115.00,141.09 114.55,143.16 114.00,143.50 C113.39,143.88 113.00,142.37 113.00,139.62 C113.00,133.40 111.62,130.37 107.91,128.45 C105.24,127.07 104.07,127.00 100.54,127.99 C97.18,128.93 96.11,129.81 95.17,132.40 C94.53,134.18 94.00,136.62 94.00,137.82 C94.00,140.81 91.19,140.61 90.43,137.57 C89.64,134.42 90.75,131.00 92.57,131.00 C93.36,131.00 94.00,130.37 94.00,129.60 C94.00,128.06 101.94,123.00 104.35,123.00 C106.70,123.00 112.13,128.08 113.64,131.67 C114.39,133.47 115.00,136.72 115.00,138.91 ZM 130.00 93.64 C130.00,96.83 129.15,97.81 127.67,96.33 C126.53,95.20 126.93,86.54 128.25,83.71 C130.18,79.56 131.34,80.50 130.64,85.64 C130.29,88.19 130.00,91.79 130.00,93.64 ZM 214.00 130.61 C214.00,132.94 213.01,133.68 211.67,132.33 C211.30,131.97 211.00,130.63 211.00,129.36 C211.00,127.73 211.43,127.23 212.50,127.64 C213.32,127.95 214.00,129.29 214.00,130.61 ZM 168.50 163.00 C168.16,163.55 167.01,164.00 165.94,164.00 C164.87,164.00 164.00,163.55 164.00,163.00 C164.00,162.45 165.15,162.00 166.56,162.00 C168.01,162.00 168.85,162.43 168.50,163.00 Z" fill="rgb(42,98,226)"/>
<path d="M 154.29 228.25 C153.34,226.22 152.04,225.00 150.84,225.00 C149.77,225.00 144.53,223.15 139.20,220.90 C134.89,219.08 130.91,217.02 127.24,214.71 C136.06,220.04 148.08,225.00 152.95,225.00 L 157.00 225.00 L 157.00 234.95 C157.00,246.04 158.06,249.46 162.15,251.57 C166.11,253.62 168.43,253.35 171.92,250.41 L 175.00 247.82 L 175.00 225.14 L 180.75 224.43 C183.91,224.04 188.19,223.13 190.25,222.40 C192.31,221.68 194.00,221.36 194.00,221.68 C194.00,221.36 192.14,221.74 189.87,222.54 C187.61,223.34 185.06,224.00 184.22,224.00 C183.38,224.00 181.24,225.11 179.47,226.46 C176.31,228.87 176.24,229.07 176.21,237.10 C176.16,248.15 174.25,252.44 168.77,253.83 C165.58,254.64 164.06,254.52 161.41,253.26 C157.45,251.37 154.70,246.27 155.51,242.29 C155.95,240.09 155.73,240.29 154.44,243.22 C153.99,244.24 153.67,244.99 153.50,245.61 C153.54,245.25 153.64,244.90 153.79,244.56 C154.24,243.58 154.47,241.20 154.41,238.58 L 155.02 235.50 C155.58,232.63 155.38,230.58 154.29,228.25 ZM 168.44 207.79 C164.78,207.95 159.99,207.81 157.00,207.32 C154.87,206.98 150.28,205.46 146.94,204.13 C149.34,204.77 152.31,205.23 154.30,205.10 C156.39,204.96 158.64,205.29 159.30,205.83 C160.60,206.91 164.90,207.67 168.44,207.79 ZM 0.00 0.00 L 6.15 0.00 L 0.00 6.15 ZM 115.16 169.35 C114.98,168.95 114.80,168.56 114.62,168.20 C112.03,163.14 111.54,151.28 113.56,150.52 C112.26,151.29 112.50,158.70 114.19,160.73 C114.76,161.41 114.95,163.06 114.62,164.38 C114.35,165.46 114.59,167.49 115.16,169.35 ZM 192.89 178.28 C196.41,174.02 199.74,167.86 201.25,162.90 C201.01,164.43 200.80,166.05 200.65,167.55 C200.43,169.83 197.09,174.15 192.89,178.28 ZM 0.00 1.56 C0.00,2.42 0.45,2.84 1.00,2.50 C1.55,2.16 2.00,1.46 2.00,0.94 C2.00,0.42 1.55,0.00 1.00,0.00 C0.45,0.00 0.00,0.70 0.00,1.56 ZM 122.76 184.74 C119.33,180.24 116.83,175.77 116.30,172.70 C116.25,172.41 116.16,172.04 116.03,171.62 C116.70,173.31 117.16,174.64 117.10,174.76 C116.78,175.36 119.66,180.35 122.76,184.74 ZM 179.61 188.03 C175.37,189.89 172.82,190.30 166.28,190.30 C171.46,190.30 175.68,189.63 179.61,188.03 ZM 202.10 158.32 C202.19,155.10 202.21,154.63 202.67,156.45 C202.53,156.66 202.33,157.34 202.10,158.32 ZM 154.49 249.12 C154.63,249.31 154.78,249.51 154.94,249.72 C156.11,251.25 158.71,253.31 161.12,254.84 C161.01,254.77 160.90,254.71 160.79,254.64 C157.84,252.94 155.67,251.00 154.49,249.12 ZM 128.48 191.32 C130.62,193.39 133.11,195.56 135.37,197.36 C135.20,197.23 135.03,197.11 134.86,196.98 C132.71,195.37 130.54,193.43 128.48,191.32 ZM 139.50 198.40 C142.14,200.54 142.75,201.45 142.00,201.32 C142.16,200.95 141.08,199.67 139.50,198.40 ZM 113.42 203.30 C109.34,198.88 105.84,193.89 102.86,188.27 C105.75,193.73 109.35,198.84 113.42,203.30 ZM 202.97 157.71 C203.26,158.89 203.67,160.17 204.02,161.03 C203.58,160.19 203.16,158.85 202.97,157.71 ZM 154.10 234.16 L 153.86 231.49 C154.02,232.16 154.07,233.01 154.10,234.16 ZM 204.39 161.82 C204.39,161.82 204.40,161.83 204.40,161.84 C204.79,162.48 204.66,163.00 204.09,163.00 C203.53,163.00 202.77,165.23 202.41,167.97 C202.77,165.23 203.52,163.00 204.07,163.00 C204.58,163.00 204.69,162.60 204.39,161.82 ZM 114.15 150.59 C114.17,150.60 114.19,150.62 114.21,150.63 C114.76,150.97 114.97,152.43 114.68,153.87 C114.96,152.46 114.72,151.01 114.15,150.59 ZM 143.00 202.15 C143.00,202.14 143.00,202.13 143.00,202.13 C143.00,201.66 144.90,201.47 146.94,201.52 C144.93,201.48 143.07,201.68 143.00,202.15 ZM 167.55 256.08 C167.13,256.48 166.73,256.74 166.23,256.81 C166.70,256.68 167.21,256.41 167.55,256.08 Z" fill="rgb(52,101,214)"/>
<path d="M 0.00 294.00 L 0.00 6.15 L 6.15 0.00 L 324.00 0.00 L 324.00 294.00 ZM 204.95 118.00 C204.94,90.11 204.69,84.17 203.47,82.56 C202.66,81.49 202.00,78.92 202.00,76.84 C202.00,73.86 201.26,72.33 198.50,69.57 C196.57,67.64 195.00,65.72 195.00,65.31 C195.00,63.78 186.69,57.00 184.82,57.00 C183.77,57.00 181.69,56.40 180.20,55.67 C178.72,54.94 174.74,53.54 171.36,52.55 C165.64,50.87 164.99,50.86 161.95,52.37 C160.16,53.27 156.75,54.00 154.38,54.00 C151.18,54.00 149.81,54.49 149.06,55.88 C148.51,56.92 146.84,58.07 145.35,58.45 C141.20,59.49 132.38,68.80 131.10,73.50 C129.81,78.25 129.76,79.00 130.75,78.99 C130.97,78.99 131.41,78.46 131.94,77.63 L 130.50 80.50 L 130.50 81.26 C130.07,80.75 129.27,81.52 128.25,83.71 C126.93,86.54 126.53,95.20 127.67,96.33 C129.15,97.81 130.00,96.83 130.00,93.64 C130.00,92.04 130.21,89.12 130.50,86.71 L 130.50 121.00 C130.50,145.11 130.51,156.36 131.58,163.10 C130.92,160.09 130.53,156.62 130.28,152.28 C129.89,145.43 129.32,142.06 128.60,142.31 C127.94,142.53 127.62,144.66 127.80,147.59 C127.97,150.29 128.19,155.51 128.30,159.19 C128.41,162.95 129.05,166.44 129.75,167.14 C130.44,167.83 131.00,169.53 131.00,170.91 C131.00,172.29 132.12,174.57 133.49,175.96 C134.86,177.36 137.14,179.71 138.56,181.18 C144.79,187.64 146.74,189.00 149.77,189.00 C151.48,189.00 153.16,189.45 153.50,190.00 C153.84,190.55 155.86,191.00 158.00,191.00 C160.14,191.00 162.16,191.45 162.50,192.00 C162.84,192.55 164.89,193.00 167.06,193.00 C169.23,193.00 171.00,192.55 171.00,192.00 C171.00,191.45 172.69,190.98 174.75,190.96 C176.81,190.93 180.68,190.34 183.33,189.64 C187.22,188.61 188.48,187.72 189.75,185.09 C190.62,183.29 192.35,181.44 193.58,180.97 C194.82,180.50 196.13,179.18 196.49,178.03 C196.85,176.88 198.19,175.27 199.45,174.44 C201.13,173.34 201.93,171.59 202.41,167.97 C202.77,165.23 203.53,163.00 204.09,163.00 C204.66,163.00 204.79,162.48 204.40,161.84 C204.40,161.83 204.39,161.82 204.39,161.82 C204.30,161.60 204.19,161.35 204.04,161.07 C204.03,161.05 204.02,161.04 204.02,161.03 C203.67,160.17 203.26,158.89 202.97,157.71 C202.92,157.39 202.88,157.09 202.87,156.82 C202.84,156.39 202.77,156.29 202.67,156.45 C202.60,156.19 202.55,155.99 202.50,155.82 L 202.50 123.00 C202.50,84.69 202.49,84.47 200.08,78.12 C199.03,75.35 197.33,72.45 195.25,69.72 C197.29,72.33 198.99,75.07 200.02,77.59 C202.39,83.39 202.44,84.16 202.79,118.95 C203.01,140.91 203.49,153.84 204.05,152.95 C204.56,152.14 204.96,136.57 204.95,118.00 ZM 200.95 220.42 C207.30,218.21 228.18,197.49 230.56,191.05 C231.48,188.55 233.01,185.14 233.95,183.47 C236.34,179.26 240.18,166.27 240.12,162.57 C240.10,160.88 240.14,156.35 240.21,152.50 C240.28,148.65 240.28,144.15 240.19,142.50 C239.61,130.94 239.27,128.96 237.54,127.05 C234.93,124.16 228.49,122.56 225.10,123.96 C222.01,125.24 216.79,133.30 217.64,135.49 C218.48,137.69 220.00,137.33 220.00,134.93 C220.00,133.86 220.23,132.87 220.66,131.98 C220.14,134.45 219.66,141.78 219.51,149.97 C219.45,153.13 219.38,155.79 219.29,158.04 C217.94,157.44 216.00,160.81 216.00,164.05 C216.00,166.14 215.32,168.53 214.50,169.36 C213.68,170.18 213.00,172.44 213.00,174.38 C213.00,176.32 212.40,178.26 211.67,178.70 C210.94,179.14 209.52,180.93 208.50,182.67 C207.49,184.42 205.61,186.40 204.33,187.09 C203.05,187.78 202.00,189.14 202.00,190.12 C202.00,192.16 194.16,197.66 185.75,201.52 C181.49,203.47 179.23,203.95 176.60,203.45 C174.17,203.00 172.44,203.28 170.84,204.40 C168.18,206.26 163.89,206.49 162.26,204.86 C161.64,204.24 159.29,203.59 157.05,203.42 C154.82,203.25 152.42,202.75 151.74,202.30 C151.01,201.83 148.90,201.56 146.94,201.52 C144.90,201.47 143.00,201.66 143.00,202.13 C143.00,202.13 143.00,202.14 143.00,202.15 C143.00,202.15 143.00,202.16 143.00,202.17 C143.00,202.23 143.02,202.28 143.04,202.34 C142.34,201.98 141.65,201.60 140.96,201.21 C141.47,201.44 141.82,201.51 141.97,201.37 C141.98,201.35 141.99,201.34 142.00,201.32 C142.75,201.45 142.14,200.54 139.50,198.40 C137.85,197.06 136.05,195.50 135.50,194.94 C134.95,194.38 133.27,192.74 131.77,191.31 C130.27,189.88 128.80,187.94 128.50,187.01 C128.20,186.07 126.90,184.82 125.61,184.23 C122.44,182.79 117.85,174.45 118.59,171.50 C118.90,170.24 118.68,168.92 118.08,168.55 C117.49,168.18 117.00,166.19 117.00,164.13 C117.00,162.07 116.36,159.51 115.58,158.44 C114.77,157.34 114.38,155.36 114.68,153.87 C114.97,152.43 114.76,150.97 114.21,150.63 C114.19,150.62 114.17,150.60 114.15,150.59 C114.13,150.58 114.12,150.57 114.10,150.56 C113.90,150.44 113.72,150.43 113.56,150.52 C113.24,150.64 112.99,151.03 112.79,151.63 C112.80,151.08 112.81,150.51 112.82,149.93 C112.95,142.94 112.71,136.17 112.29,133.58 C112.78,135.18 113.00,137.15 113.00,139.62 C113.00,142.37 113.39,143.88 114.00,143.50 C114.55,143.16 115.00,141.09 115.00,138.91 C115.00,136.72 114.39,133.47 113.64,131.67 C112.13,128.08 106.70,123.00 104.35,123.00 C101.94,123.00 94.00,128.06 94.00,129.60 C94.00,130.37 93.36,131.00 92.57,131.00 C90.75,131.00 89.64,134.42 90.43,137.57 C91.19,140.61 94.00,140.81 94.00,137.82 C94.00,136.62 94.53,134.18 95.17,132.40 C96.11,129.81 97.18,128.93 100.54,127.99 C94.68,129.63 93.71,132.78 93.74,149.96 C93.76,159.96 94.11,164.11 95.52,169.35 C94.60,166.36 94.00,163.95 94.00,162.91 C94.00,161.86 93.49,161.00 92.86,161.00 C91.54,161.00 92.43,171.07 94.02,174.04 C94.56,175.05 95.00,177.16 95.00,178.75 C95.00,180.33 95.90,182.59 97.00,183.77 C98.10,184.95 99.01,186.27 99.02,186.71 C99.04,187.51 103.24,193.97 106.00,197.44 C107.95,199.88 120.12,212.06 122.56,213.99 C126.76,217.34 131.19,220.01 133.45,220.58 C134.77,220.91 136.63,222.04 137.58,223.09 C138.53,224.14 140.38,225.00 141.69,225.00 C143.00,225.00 146.30,226.13 149.03,227.52 C152.35,229.20 153.46,229.80 153.86,231.49 L 154.10 234.16 C154.10,234.35 154.11,234.55 154.12,234.77 L 154.23 239.50 L 154.41 238.58 C154.47,241.20 154.24,243.58 153.79,244.56 C153.64,244.90 153.54,245.25 153.50,245.61 C153.10,246.97 153.40,247.66 154.49,249.12 C155.67,251.00 157.84,252.94 160.79,254.64 C160.90,254.71 161.01,254.77 161.12,254.84 C162.91,255.97 164.60,256.80 165.55,256.89 C165.75,256.91 165.99,256.88 166.24,256.81 C166.73,256.74 167.13,256.48 167.55,256.08 C168.07,255.57 169.85,255.01 171.50,254.83 C173.35,254.62 174.50,253.93 174.50,253.00 C174.50,252.18 175.23,250.38 176.13,249.00 C178.22,245.80 179.27,235.40 177.75,232.97 C176.50,230.97 178.15,228.00 180.50,228.00 C181.19,228.00 182.32,227.32 183.00,226.50 C183.68,225.68 185.65,224.99 187.37,224.97 C190.26,224.94 194.00,223.09 194.00,221.68 C194.00,221.36 192.31,221.68 190.25,222.40 C188.19,223.13 183.91,224.04 180.75,224.43 L 175.00 225.14 L 180.75 224.43 C188.15,223.51 195.60,220.79 202.55,216.70 C192.89,222.63 192.69,223.30 200.95,220.42 ZM 183.90 144.49 C183.73,142.97 183.44,142.00 183.00,142.00 C182.45,142.00 181.99,143.91 181.98,146.25 C181.95,150.79 181.01,155.13 178.70,161.37 C177.57,164.45 176.27,165.74 172.39,167.62 C166.67,170.38 166.08,170.44 162.33,168.64 C160.77,167.89 158.15,166.64 156.50,165.86 C154.31,164.82 153.42,163.64 153.21,161.47 C153.06,159.84 152.38,157.42 151.71,156.10 C150.83,154.36 150.50,144.54 150.50,120.41 L 150.50 87.13 L 153.10 84.32 C154.54,82.77 155.99,80.70 156.33,79.73 C156.67,78.76 158.32,77.69 160.00,77.35 C161.67,77.02 163.28,76.35 163.58,75.87 C166.14,71.73 180.22,82.86 181.69,90.18 C181.96,91.53 182.52,92.66 183.02,92.94 C183.51,105.59 183.90,129.27 183.90,144.49 ZM 214.00 130.61 C214.00,129.29 213.32,127.95 212.50,127.64 C211.43,127.23 211.00,127.73 211.00,129.36 C211.00,130.63 211.30,131.97 211.67,132.33 C213.01,133.68 214.00,132.94 214.00,130.61 ZM 168.50 163.00 C168.85,162.43 168.01,162.00 166.56,162.00 C165.15,162.00 164.00,162.45 164.00,163.00 C164.00,163.55 164.87,164.00 165.94,164.00 C167.01,164.00 168.16,163.55 168.50,163.00 ZM 100.75 183.71 C104.41,191.66 109.05,198.66 114.47,204.40 C114.12,204.04 113.77,203.67 113.42,203.30 C109.35,198.84 105.75,193.73 102.86,188.27 C102.23,187.07 101.50,185.49 100.75,183.71 ZM 224.45 128.35 C226.44,127.41 228.95,127.09 231.62,127.59 C234.35,128.10 236.00,128.65 236.97,130.55 C236.87,130.42 236.77,130.29 236.65,130.17 C234.06,127.30 228.37,126.80 224.45,128.35 ZM 181.08 162.81 C181.51,162.24 181.93,161.64 182.35,161.03 C183.03,160.00 183.54,157.20 183.83,154.05 C183.77,156.46 183.69,158.05 183.57,158.53 C183.30,159.64 182.35,161.19 181.08,162.81 ZM 128.48 191.32 C130.54,193.43 132.71,195.37 134.86,196.98 C135.03,197.11 135.20,197.23 135.37,197.36 C136.36,198.15 137.30,198.86 138.15,199.47 C134.57,197.08 131.11,194.16 127.68,190.65 C127.14,190.10 126.59,189.49 126.03,188.84 C126.76,189.63 127.59,190.47 128.48,191.32 ZM 179.61 188.03 C177.92,188.72 176.18,189.23 174.33,189.60 C177.53,188.83 180.57,187.62 183.40,186.01 C182.35,186.68 181.33,187.25 180.40,187.68 C180.13,187.80 179.87,187.92 179.61,188.03 ZM 112.97 162.87 C113.35,164.91 113.91,166.81 114.62,168.20 C114.80,168.56 114.98,168.95 115.16,169.35 C115.23,169.59 115.31,169.83 115.40,170.06 C115.07,169.27 114.68,168.44 114.28,167.70 C113.60,166.44 113.19,165.14 112.97,162.87 ZM 173.50 207.00 C173.84,206.45 175.34,206.00 176.84,206.00 C175.34,206.00 173.80,206.51 173.41,207.14 C172.99,207.82 170.63,208.05 165.91,207.85 C166.78,207.85 167.64,207.83 168.44,207.79 C170.96,207.89 173.09,207.66 173.50,207.00 ZM 211.45 182.09 C213.32,179.27 214.97,176.42 216.00,174.17 C215.90,175.13 213.89,178.52 211.45,182.09 ZM 217.51 169.98 C217.98,168.44 218.41,166.80 218.77,165.25 C218.49,167.44 218.12,168.81 217.60,169.81 C217.57,169.87 217.54,169.92 217.51,169.98 ZM 157.04 235.25 C157.05,239.89 157.23,243.12 157.74,245.47 C157.19,243.04 157.00,239.70 157.00,234.95 L 157.00 225.00 ZM 182.60 85.49 C182.51,85.13 182.42,84.77 182.32,84.38 C181.83,82.52 180.23,80.36 178.16,78.52 C180.23,80.35 181.88,82.51 182.44,84.38 C182.50,84.56 182.55,84.94 182.60,85.49 ZM 192.89 178.28 C192.59,178.57 192.29,178.86 191.99,179.14 C193.13,177.91 194.21,176.58 195.21,175.16 C194.46,176.27 193.68,177.32 192.89,178.28 ZM 158.32 189.73 C157.51,189.57 156.97,189.37 156.75,189.15 C156.12,188.52 154.64,188.00 153.46,188.00 C154.64,188.00 156.03,188.42 156.55,188.93 C156.82,189.19 157.48,189.48 158.32,189.73 ZM 134.25 73.40 C135.74,71.05 138.49,67.80 141.14,65.10 C138.62,67.70 135.96,70.86 134.25,73.40 ZM 176.84 206.00 C181.93,206.00 189.88,202.47 196.82,197.55 C189.90,202.48 181.99,206.00 176.84,206.00 ZM 165.76 252.85 C167.82,253.04 169.75,252.24 171.92,250.41 C169.63,252.34 167.84,253.12 165.76,252.85 ZM 111.11 131.13 C110.26,130.08 109.06,129.05 107.91,128.45 C109.28,129.16 110.33,130.02 111.11,131.13 ZM 115.74 170.91 C115.84,171.15 115.93,171.39 116.03,171.62 C116.16,172.04 116.25,172.41 116.30,172.70 C116.37,173.11 116.48,173.55 116.62,174.00 C116.45,173.52 116.33,173.09 116.28,172.72 C116.21,172.30 116.01,171.65 115.74,170.91 ZM 127.01 214.57 C129.77,216.25 132.84,217.89 135.91,219.36 C132.92,217.93 129.93,216.34 127.24,214.71 C127.17,214.66 127.09,214.61 127.01,214.57 ZM 172.13 170.58 C172.48,170.43 172.84,170.26 173.21,170.06 C172.88,170.25 172.57,170.41 172.27,170.53 C171.88,170.69 171.49,170.84 171.11,170.98 C171.45,170.86 171.78,170.73 172.13,170.58 ZM 147.04 204.17 C147.47,204.34 147.91,204.51 148.36,204.68 C147.92,204.51 147.48,204.35 147.04,204.17 Z" fill="rgb(37,99,234)"/>
<path d="M 162.11 251.60 C158.03,249.34 157.07,246.27 157.04,235.25 L 157.00 225.00 L 152.95 225.00 C147.05,225.00 130.86,217.82 122.26,211.38 C110.36,202.48 101.09,188.24 95.99,171.00 C94.18,164.90 93.76,160.98 93.74,149.96 C93.71,132.78 94.68,129.63 100.54,127.99 C104.07,127.00 105.24,127.07 107.91,128.45 C109.66,129.36 111.54,131.28 112.09,132.72 C112.63,134.17 112.97,141.91 112.82,149.93 C112.60,162.14 112.84,165.02 114.28,167.70 C115.22,169.45 116.12,171.72 116.28,172.72 C116.80,176.19 122.88,185.74 127.68,190.65 C138.41,201.63 149.47,206.89 163.56,207.73 C169.86,208.11 172.93,207.92 173.41,207.14 C173.80,206.51 175.34,206.00 176.84,206.00 C184.48,206.00 198.18,198.25 205.71,189.67 C209.73,185.10 216.00,175.60 216.00,174.10 C216.00,173.44 216.72,171.51 217.60,169.81 C218.84,167.42 219.27,162.90 219.51,149.97 C219.68,140.59 220.28,132.34 220.88,131.22 C223.26,126.78 233.00,126.14 236.65,130.17 C238.24,131.92 238.41,134.02 238.21,148.88 C237.95,168.34 236.90,173.51 230.57,186.50 C220.79,206.58 200.58,221.96 180.75,224.43 L 175.00 225.14 L 175.00 236.48 L 175.00 247.82 L 171.92 250.41 C168.53,253.27 165.73,253.61 162.11,251.60 ZM 161.00 190.29 C159.07,190.05 157.07,189.44 156.55,188.93 C156.03,188.42 154.64,188.00 153.46,188.00 C150.35,188.00 140.99,180.93 137.40,175.87 C130.54,166.18 130.50,165.90 130.50,121.00 L 130.50 80.50 L 133.00 75.50 C135.50,70.50 145.37,60.00 147.57,60.00 C148.21,60.00 149.87,59.10 151.27,58.00 C152.73,56.86 155.46,55.96 157.66,55.90 C159.77,55.85 162.61,55.49 163.96,55.11 C167.19,54.22 178.08,56.49 183.30,59.15 C190.01,62.57 197.32,70.84 200.08,78.12 C202.49,84.47 202.50,84.69 202.50,123.00 L 202.50 161.50 L 198.76 169.16 C191.35,184.32 177.13,192.27 161.00,190.29 ZM 172.27 170.53 C176.06,168.95 182.76,161.83 183.57,158.53 C184.45,154.97 183.42,87.62 182.44,84.38 C181.41,80.98 176.84,76.65 172.57,75.03 C169.01,73.67 162.42,73.72 159.68,75.12 C156.29,76.86 150.91,82.24 149.80,85.00 C149.19,86.53 148.86,101.18 148.95,122.89 C149.12,163.55 149.13,163.56 157.78,169.00 C163.04,172.30 167.03,172.72 172.27,170.53 ZM 0.00 1.56 C0.00,0.70 0.45,0.00 1.00,0.00 C1.55,0.00 2.00,0.42 2.00,0.94 C2.00,1.46 1.55,2.16 1.00,2.50 C0.45,2.84 0.00,2.42 0.00,1.56 Z" fill="rgb(251,253,252)"/>
</g>
</svg>